<svg width="16" height="16" viewBox="0 0 16 16" fill="none" xmlns="http://www.w3.org/2000/svg">
<path d="M10.6125 14.9313L3.24062 8.63125C3.15312 8.55625 3.09129 8.475 3.05512 8.3875C3.01837 8.3 3 8.20625 3 8.10625C3 8.00625 3.01837 7.9125 3.05512 7.825C3.09129 7.7375 3.15312 7.65625 3.24062 7.58125L10.6125 1.2625C10.8167 1.0875 11.0719 1 11.3781 1C11.6844 1 11.9469 1.09375 12.1656 1.28125C12.3844 1.46875 12.4937 1.6875 12.4937 1.9375C12.4937 2.1875 12.3844 2.40625 12.1656 2.59375L5.73437 8.10625L12.1656 13.6188C12.3698 13.7938 12.4719 14.0093 12.4719 14.2653C12.4719 14.5218 12.3625 14.7438 12.1437 14.9313C11.925 15.1188 11.6698 15.2125 11.3781 15.2125C11.0865 15.2125 10.8312 15.1188 10.6125 14.9313Z" fill="#3864A5"/>
</svg>
