<svg width="16" height="16" viewBox="0 0 16 16" fill="none" xmlns="http://www.w3.org/2000/svg">
<path d="M4.71267 14.1817C5.72448 14.7206 6.85362 15.0015 8 14.9996C11.866 14.9996 15 11.8657 15 7.99981C15 4.1339 11.866 0.999976 8 0.999976C4.13401 0.999976 1.00001 4.1339 1.00001 7.99981C1.00001 9.18978 1.29667 10.3091 1.81934 11.2891C1.94129 11.5174 1.96996 11.784 1.89934 12.033L1.07667 14.9243L3.96867 14.1023C4.2176 14.0315 4.48428 14.0599 4.71267 14.1817ZM8 15.9996C6.68942 16.0015 5.39861 15.68 4.24201 15.0636L1.06201 15.9683C0.919258 16.0088 0.768269 16.0105 0.624644 15.9732C0.481019 15.9359 0.349969 15.8609 0.245036 15.7559C0.140103 15.651 0.065094 15.52 0.0277605 15.3763C-0.00957287 15.2327 -0.00787629 15.0817 0.0326748 14.939L0.936674 11.7591C0.319867 10.6021 -0.00186823 9.31087 8.16054e-06 7.99981C8.16054e-06 3.58191 3.58201 0 8 0C12.418 0 16 3.58191 16 7.99981C16 12.4177 12.418 15.9996 8 15.9996ZM5.00001 6.49984C5.00001 6.36724 5.05268 6.24007 5.14645 6.1463C5.24022 6.05253 5.3674 5.99986 5.50001 5.99986H10.5C10.6326 5.99986 10.7598 6.05253 10.8536 6.1463C10.9473 6.24007 11 6.36724 11 6.49984C11 6.63245 10.9473 6.75962 10.8536 6.85339C10.7598 6.94715 10.6326 6.99983 10.5 6.99983H5.50001C5.3674 6.99983 5.24022 6.94715 5.14645 6.85339C5.05268 6.75962 5.00001 6.63245 5.00001 6.49984ZM5.00001 9.49977C5.00001 9.36717 5.05268 9.23999 5.14645 9.14623C5.24022 9.05246 5.3674 8.99978 5.50001 8.99978H8.5C8.63261 8.99978 8.75979 9.05246 8.85356 9.14623C8.94732 9.23999 9 9.36717 9 9.49977C9 9.63238 8.94732 9.75955 8.85356 9.85332C8.75979 9.94708 8.63261 9.99976 8.5 9.99976H5.50001C5.3674 9.99976 5.24022 9.94708 5.14645 9.85332C5.05268 9.75955 5.00001 9.63238 5.00001 9.49977Z" fill="#3864A5"/>
</svg>
