<svg width="20" height="20" viewBox="0 0 20 20" fill="none" xmlns="http://www.w3.org/2000/svg">
<path d="M18 18L13.4286 13.4286M8.85714 15.7143C7.95665 15.7143 7.06498 15.5369 6.23303 15.1923C5.40108 14.8477 4.64516 14.3426 4.00841 13.7059C3.37167 13.0691 2.86657 12.3132 2.52197 11.4813C2.17737 10.6493 2 9.75764 2 8.85714C2 7.95665 2.17737 7.06498 2.52197 6.23303C2.86657 5.40108 3.37167 4.64516 4.00841 4.00841C4.64516 3.37167 5.40108 2.86657 6.23303 2.52197C7.06498 2.17737 7.95665 2 8.85714 2C10.6758 2 12.4199 2.72245 13.7059 4.00841C14.9918 5.29437 15.7143 7.03852 15.7143 8.85714C15.7143 10.6758 14.9918 12.4199 13.7059 13.7059C12.4199 14.9918 10.6758 15.7143 8.85714 15.7143Z" stroke="#3864A5" stroke-width="1.5"/>
</svg>
