<svg width="20" height="20" viewBox="0 0 20 20" fill="none" xmlns="http://www.w3.org/2000/svg">
<path d="M17.2659 4.98596C17.5666 5.15699 17.8163 5.40506 17.9894 5.70466C18.1624 6.00425 18.2524 6.34453 18.2503 6.69049V13.0641C18.2503 13.772 17.8626 14.4247 17.237 14.7686L11.3307 18.5049C11.0378 18.6657 10.7092 18.75 10.3751 18.75C10.0411 18.75 9.71244 18.6657 9.41962 18.5049L3.51327 14.7686C3.20716 14.6013 2.95162 14.3549 2.77336 14.055C2.59511 13.7552 2.5007 13.4129 2.5 13.0641V6.68961C2.5 5.98172 2.88763 5.32984 3.51327 4.98596L9.41962 1.5034C9.7211 1.33717 10.0598 1.25 10.404 1.25C10.7483 1.25 11.0869 1.33717 11.3884 1.5034L17.2948 4.98596H17.2659Z" stroke="#3864A5" stroke-width="1.5" stroke-linecap="round" stroke-linejoin="round"/>
<path d="M7.75006 9.9998C7.75006 10.696 8.02663 11.3637 8.51892 11.856C9.01121 12.3483 9.6789 12.6248 10.3751 12.6248C11.0713 12.6248 11.739 12.3483 12.2313 11.856C12.7236 11.3637 13.0002 10.696 13.0002 9.9998C13.0002 9.3036 12.7236 8.63591 12.2313 8.14361C11.739 7.65132 11.0713 7.37476 10.3751 7.37476C9.6789 7.37476 9.01121 7.65132 8.51892 8.14361C8.02663 8.63591 7.75006 9.3036 7.75006 9.9998Z" stroke="#3864A5" stroke-width="1.5" stroke-linecap="round" stroke-linejoin="round"/>
</svg>
