<svg width="16" height="17" viewBox="0 0 16 17" fill="none" xmlns="http://www.w3.org/2000/svg">
<path fill-rule="evenodd" clip-rule="evenodd" d="M1.5 8.5C1.5 6.77609 2.18482 5.12279 3.40381 3.90381C4.62279 2.68482 6.27609 2 8 2C9.72391 2 11.3772 2.68482 12.5962 3.90381C13.8152 5.12279 14.5 6.77609 14.5 8.5C14.5 10.2239 13.8152 11.8772 12.5962 13.0962C11.3772 14.3152 9.72391 15 8 15C6.27609 15 4.62279 14.3152 3.40381 13.0962C2.18482 11.8772 1.5 10.2239 1.5 8.5ZM8 0.5C5.87827 0.5 3.84344 1.34285 2.34315 2.84315C0.842855 4.34344 0 6.37827 0 8.5C0 10.6217 0.842855 12.6566 2.34315 14.1569C3.84344 15.6571 5.87827 16.5 8 16.5C10.1217 16.5 12.1566 15.6571 13.6569 14.1569C15.1571 12.6566 16 10.6217 16 8.5C16 6.37827 15.1571 4.34344 13.6569 2.84315C12.1566 1.34285 10.1217 0.5 8 0.5ZM5 8.5C5.26522 8.5 5.51957 8.39464 5.70711 8.20711C5.89464 8.01957 6 7.76522 6 7.5C6 7.23478 5.89464 6.98043 5.70711 6.79289C5.51957 6.60536 5.26522 6.5 5 6.5C4.73478 6.5 4.48043 6.60536 4.29289 6.79289C4.10536 6.98043 4 7.23478 4 7.5C4 7.76522 4.10536 8.01957 4.29289 8.20711C4.48043 8.39464 4.73478 8.5 5 8.5ZM12 7.5C12 7.76522 11.8946 8.01957 11.7071 8.20711C11.5196 8.39464 11.2652 8.5 11 8.5C10.7348 8.5 10.4804 8.39464 10.2929 8.20711C10.1054 8.01957 10 7.76522 10 7.5C10 7.23478 10.1054 6.98043 10.2929 6.79289C10.4804 6.60536 10.7348 6.5 11 6.5C11.2652 6.5 11.5196 6.60536 11.7071 6.79289C11.8946 6.98043 12 7.23478 12 7.5ZM5.32 10.136C5.48134 10.023 5.68064 9.97806 5.87486 10.0108C6.06908 10.0435 6.24262 10.1514 6.358 10.311L6.365 10.32C6.46785 10.438 6.58549 10.5421 6.715 10.63C6.979 10.808 7.398 11 8 11C8.602 11 9.02 10.808 9.285 10.629C9.41451 10.5411 9.53215 10.437 9.635 10.319L9.642 10.311C9.75737 10.1489 9.93239 10.0394 10.1285 10.0064C10.3247 9.97336 10.526 10.0196 10.688 10.135C10.85 10.2504 10.9596 10.4254 10.9926 10.6215C11.0256 10.8177 10.9794 11.019 10.864 11.181L10.25 10.75C10.864 11.18 10.864 11.181 10.863 11.181V11.182L10.862 11.184L10.86 11.187L10.855 11.194L10.841 11.213C10.7848 11.2883 10.7233 11.3594 10.657 11.426C10.4963 11.5924 10.3187 11.7415 10.127 11.871C9.49722 12.2894 8.75607 12.5086 8 12.5C7.054 12.5 6.348 12.192 5.874 11.87C5.62319 11.7003 5.39676 11.4971 5.201 11.266C5.1867 11.2486 5.1727 11.2309 5.159 11.213L5.145 11.193L5.14 11.187L5.138 11.184V11.182H5.137L5.75 10.75L5.136 11.18C5.02196 11.0172 4.97718 10.8159 5.01149 10.6201C5.04581 10.4244 5.1564 10.2503 5.319 10.136H5.32Z" fill="#3864A5"/>
</svg>
