<svg width="17" height="19" viewBox="0 0 17 19" fill="none" xmlns="http://www.w3.org/2000/svg">
<path d="M8 0.5C8.25488 0.500283 8.50003 0.597879 8.68537 0.772848C8.8707 0.947818 8.98223 1.18695 8.99717 1.44139C9.01211 1.69584 8.92933 1.94638 8.76574 2.14183C8.60215 2.33729 8.3701 2.4629 8.117 2.493L8 2.5H3C2.75507 2.50003 2.51866 2.58996 2.33563 2.75272C2.15259 2.91547 2.03566 3.13975 2.007 3.383L2 3.5V15.5C2.00003 15.7449 2.08996 15.9813 2.25272 16.1644C2.41547 16.3474 2.63975 16.4643 2.883 16.493L3 16.5H7.5C7.75488 16.5003 8.00003 16.5979 8.18537 16.7728C8.3707 16.9478 8.48223 17.187 8.49717 17.4414C8.51211 17.6958 8.42933 17.9464 8.26574 18.1418C8.10215 18.3373 7.8701 18.4629 7.617 18.493L7.5 18.5H3C2.23479 18.5 1.49849 18.2077 0.941739 17.6827C0.384993 17.1578 0.0498925 16.4399 0.00500012 15.676L4.66045e-09 15.5V3.5C-4.26217e-05 2.73479 0.292325 1.99849 0.817284 1.44174C1.34224 0.884993 2.06011 0.549892 2.824 0.505L3 0.5H8ZM13.707 5.964L16.535 8.793C16.7225 8.98053 16.8278 9.23484 16.8278 9.5C16.8278 9.76516 16.7225 10.0195 16.535 10.207L13.707 13.036C13.5194 13.2235 13.2649 13.3288 12.9996 13.3287C12.7344 13.3286 12.48 13.2231 12.2925 13.0355C12.105 12.8479 11.9997 12.5934 11.9998 12.3281C11.9999 12.0629 12.1054 11.8085 12.293 11.621L13.414 10.5H8C7.73478 10.5 7.48043 10.3946 7.29289 10.2071C7.10536 10.0196 7 9.76522 7 9.5C7 9.23478 7.10536 8.98043 7.29289 8.79289C7.48043 8.60536 7.73478 8.5 8 8.5H13.414L12.293 7.379C12.1054 7.19149 11.9999 6.93712 11.9998 6.67185C11.9997 6.40658 12.105 6.15214 12.2925 5.9645C12.48 5.77686 12.7344 5.67139 12.9996 5.6713C13.2649 5.6712 13.5194 5.77649 13.707 5.964Z" fill="#3864A5"/>
</svg>
