<svg width="16" height="16" viewBox="0 0 16 16" fill="none" xmlns="http://www.w3.org/2000/svg">
<path d="M5.88125 1.28124L13.2531 7.58124C13.3406 7.65624 13.4025 7.73749 13.4386 7.82499C13.4754 7.91249 13.4937 8.00624 13.4937 8.10624C13.4937 8.20624 13.4754 8.29999 13.4386 8.38749C13.4025 8.47499 13.3406 8.55624 13.2531 8.63124L5.88124 14.95C5.67708 15.125 5.42187 15.2125 5.11562 15.2125C4.80937 15.2125 4.54687 15.1187 4.32812 14.9312C4.10937 14.7437 4 14.525 4 14.275C4 14.025 4.10937 13.8062 4.32812 13.6187L10.7594 8.10624L4.32812 2.59374C4.12395 2.41874 4.02187 2.20324 4.02187 1.94724C4.02187 1.69074 4.13125 1.46874 4.35 1.28124C4.56875 1.09374 4.82395 0.999993 5.11562 0.999993C5.40729 0.999993 5.6625 1.09374 5.88125 1.28124Z" fill="#EFEFEF"/>
</svg>
